<?xml version="1.0" encoding="UTF-8" standalone="no"?>
<!-- Created with Inkscape (http://www.inkscape.org/) -->

<svg
   xmlns:dc="http://purl.org/dc/elements/1.1/"
   xmlns:cc="http://creativecommons.org/ns#"
   xmlns:rdf="http://www.w3.org/1999/02/22-rdf-syntax-ns#"
   xmlns:svg="http://www.w3.org/2000/svg"
   xmlns="http://www.w3.org/2000/svg"
   xmlns:sodipodi="http://sodipodi.sourceforge.net/DTD/sodipodi-0.dtd"
   xmlns:inkscape="http://www.inkscape.org/namespaces/inkscape"
   width="64"
   height="64"
   id="svg2"
   version="1.1"
   inkscape:version="0.48.4 r9939"
   sodipodi:docname="walk.svg">
  <defs
     id="defs4" />
  <sodipodi:namedview
     id="base"
     pagecolor="#ffffff"
     bordercolor="#666666"
     borderopacity="1.0"
     inkscape:pageopacity="0.0"
     inkscape:pageshadow="2"
     inkscape:zoom="3.959798"
     inkscape:cx="47.478851"
     inkscape:cy="0.18206626"
     inkscape:document-units="px"
     inkscape:current-layer="layer1"
     showgrid="true"
     inkscape:window-width="1021"
     inkscape:window-height="973"
     inkscape:window-x="665"
     inkscape:window-y="24"
     inkscape:window-maximized="0"
     showguides="true"
     inkscape:guide-bbox="true" />
  <metadata
     id="metadata7">
    <rdf:RDF>
      <cc:Work
         rdf:about="">
        <dc:format>image/svg+xml</dc:format>
        <dc:type
           rdf:resource="http://purl.org/dc/dcmitype/StillImage" />
        <dc:title></dc:title>
      </cc:Work>
    </rdf:RDF>
  </metadata>
  <g
     inkscape:label="Layer 1"
     inkscape:groupmode="layer"
     id="layer1"
     transform="translate(0,-988.36218)">
    <path
       style="fill:#000000;stroke:none;stroke-width:0.30000000999999998;stroke-linecap:butt;stroke-linejoin:miter;stroke-miterlimit:4;stroke-opacity:1;stroke-dasharray:none;fill-opacity:1"
       d="m 21,22 c 8,-6 8,-6 8,-6 1.164697,-0.843182 3.129931,-0.335328 4.631345,0.505076 L 38,25 43.252538,28.558058 C 43.767303,30.520019 43.383808,30.906073 41,31 L 35,27 33.631345,23.936865 32,31 l 6.747462,8.189404 1.747462,10.052982 c -0.841128,3.028571 -2.266659,3.719534 -4.621193,0.694479 L 34,41 28.810596,35.441942 27.315673,41.315673 21.558058,50.936865 C 19.194422,52.517081 17.514609,52.294491 17,49 L 22.441942,40 26,23 l -2,1 -2,7 c -1.356623,2.377487 -2.123343,0.822286 -3,0 z"
       id="path3920"
       inkscape:connector-curvature="0"
       transform="translate(0,988.36218)"
       sodipodi:nodetypes="ccccccccccccccccccccccc" />
    <path
       sodipodi:type="arc"
       style="fill:#000000;fill-opacity:1;stroke-width:1;stroke-miterlimit:4;stroke-dasharray:none;stroke-dashoffset:0"
       id="path2989"
       sodipodi:cx="32"
       sodipodi:cy="12"
       sodipodi:rx="4"
       sodipodi:ry="4"
       d="m 36,12 a 4,4 0 1 1 -8,0 4,4 0 1 1 8,0 z"
       transform="translate(0,987.37999)" />
  </g>
</svg>
