<?xml version="1.0" encoding="UTF-8" standalone="no"?>
<!-- Created with Inkscape (http://www.inkscape.org/) -->

<svg
   xmlns:dc="http://purl.org/dc/elements/1.1/"
   xmlns:cc="http://creativecommons.org/ns#"
   xmlns:rdf="http://www.w3.org/1999/02/22-rdf-syntax-ns#"
   xmlns:svg="http://www.w3.org/2000/svg"
   xmlns="http://www.w3.org/2000/svg"
   xmlns:sodipodi="http://sodipodi.sourceforge.net/DTD/sodipodi-0.dtd"
   xmlns:inkscape="http://www.inkscape.org/namespaces/inkscape"
   width="64"
   height="64"
   id="svg2"
   version="1.1"
   inkscape:version="0.48.4 r9939"
   sodipodi:docname="stop.svg">
  <defs
     id="defs4" />
  <sodipodi:namedview
     id="base"
     pagecolor="#ffffff"
     bordercolor="#666666"
     borderopacity="1.0"
     inkscape:pageopacity="0.0"
     inkscape:pageshadow="2"
     inkscape:zoom="5.6"
     inkscape:cx="37.294474"
     inkscape:cy="40.335516"
     inkscape:document-units="px"
     inkscape:current-layer="layer1"
     showgrid="true"
     inkscape:window-width="1021"
     inkscape:window-height="973"
     inkscape:window-x="657"
     inkscape:window-y="24"
     inkscape:window-maximized="0">
    <inkscape:grid
       type="xygrid"
       id="grid2985"
       empspacing="8"
       visible="true"
       enabled="true"
       snapvisiblegridlinesonly="true" />
  </sodipodi:namedview>
  <metadata
     id="metadata7">
    <rdf:RDF>
      <cc:Work
         rdf:about="">
        <dc:format>image/svg+xml</dc:format>
        <dc:type
           rdf:resource="http://purl.org/dc/dcmitype/StillImage" />
        <dc:title />
      </cc:Work>
    </rdf:RDF>
  </metadata>
  <g
     inkscape:label="Layer 1"
     inkscape:groupmode="layer"
     id="layer1"
     transform="translate(0,-988.36218)">
    <path
       sodipodi:type="arc"
       style="fill:#000000;fill-opacity:1;stroke-width:1;stroke-miterlimit:4;stroke-dasharray:none;stroke-dashoffset:0"
       id="path2989"
       sodipodi:cx="32"
       sodipodi:cy="12"
       sodipodi:rx="4"
       sodipodi:ry="4"
       d="m 36,12 c 0,2.209139 -1.790861,4 -4,4 -2.209139,0 -4,-1.790861 -4,-4 0,-2.209139 1.790861,-4 4,-4 2.209139,0 4,1.790861 4,4 z"
       transform="translate(0,987.37999)" />
    <path
       style="fill:#000000;fill-opacity:1;stroke-width:1;stroke-miterlimit:4;stroke-dasharray:none;stroke-dashoffset:0"
       d="M 32 16 C 27.029437 16 23 17.790861 23 20 L 23 31 C 23 32.104569 23.890323 33 24.71875 33 C 25.547177 33 26.348233 32.10456 26.34375 31 L 26.34375 20 L 26.90625 20 L 26.90625 37 L 26.90625 50 C 26.90625 51.1045 27.801681 52 28.90625 52 C 30.010819 52 30.90625 51.1045 30.90625 50 L 30.90625 37 L 32.90625 37 L 32.90625 50 C 32.90625 51.1045 33.801681 52 34.90625 52 C 36.010819 52 36.90625 51.1045 36.90625 50 L 36.90625 37 L 36.90625 20 L 37.5 20 L 37.5 31 C 37.5 32.1045 38.421573 33 39.25 33 C 40.078427 33 41.03125 32.1045 41.03125 31 L 41.03125 20 L 41 20 C 41 17.790861 36.970563 16 32 16 z "
       transform="translate(0,988.36218)"
       id="path3761" />
  </g>
</svg>
